Coordinates
version=1
nRows=31
nColumns=38
inDegrees=no

Units are S.I. units (second, meters, Newtons, ...)
If the header above contains a line with 'inDegrees', this indicates whether rotational values are in degrees (yes) or radians (no).

endheader
time	pelvis_tilt	pelvis_list	pelvis_rotation	pelvis_tx	pelvis_ty	pelvis_tz	hip_flexion_r	hip_adduction_r	hip_rotation_r	knee_angle_r	ankle_angle_r	subtalar_angle_r	mtp_angle_r	hip_flexion_l	hip_adduction_l	hip_rotation_l	knee_angle_l	ankle_angle_l	subtalar_angle_l	mtp_angle_l	lumbar_extension	lumbar_bending	lumbar_rotation	arm_flex_r	arm_add_r	arm_rot_r	elbow_flex_r	pro_sup_r	wrist_flex_r	wrist_dev_r	arm_flex_l	arm_add_l	arm_rot_l	elbow_flex_l	pro_sup_l	wrist_flex_l	wrist_dev_l
0	2.33986	1.40605	-0.816016	0.690008	-0.931431	0.941901	0.165752	0.12248	-0.385572	0.219144	-0.0606126	0	0	-0.27779	-0.186958	-0.372678	0.584454	-0.0138374	0	0	-0.27496	0.162293	0.0871653	0.120155	-0.371366	1.02014	0.358232	0.634233	0	0	0.0908981	-0.127632	0.134317	0.330812	1.5708	0	0
0.01	2.28	1.40706	-0.762844	0.693087	-0.921959	0.941736	0.161057	0.13483	-0.379423	0.215044	-0.0547962	0	0	-0.243243	-0.207381	-0.366516	0.642492	-0.0624142	0	0	-0.2654	0.166805	0.0967996	0.11426	-0.373102	1.01025	0.359612	0.636513	0	0	0.0857778	-0.129491	0.139746	0.336474	1.5708	0	0
0.02	2.23357	1.40465	-0.72147	0.695904	-0.912407	0.941905	0.151069	0.147303	-0.375393	0.209371	-0.0483466	0	0	-0.211343	-0.228216	-0.356821	0.699131	-0.11568	0	0	-0.259244	0.172726	0.103292	0.110318	-0.374985	1.0067	0.361006	0.640431	0	0	0.079919	-0.130989	0.142241	0.341908	1.5708	0	0
0.03	2.22528	1.40039	-0.718892	0.698983	-0.90326	0.942975	0.134236	0.157205	-0.36808	0.202334	-0.043819	0	0	-0.176435	-0.250528	-0.347532	0.767584	-0.178183	0	0	-0.260897	0.174537	0.110364	0.108899	-0.374813	1.00485	0.361142	0.645974	0	0	0.0765695	-0.133157	0.144865	0.346293	1.5708	0	0
0.04	2.17373	1.39721	-0.671473	0.701096	-0.894064	0.942812	0.126452	0.168501	-0.364127	0.198883	-0.0374127	0	0	-0.155225	-0.25932	-0.312739	0.791922	-0.234913	0	0	-0.254339	0.182973	0.116238	0.105319	-0.378192	0.99992	0.363614	0.655747	0	0	0.0719131	-0.132132	0.148315	0.348761	1.5708	0	0
0.05	2.17933	1.39448	-0.681243	0.703803	-0.88521	0.943752	0.105373	0.175078	-0.344944	0.185972	-0.0313872	0	0	-0.116559	-0.278072	-0.312574	0.867984	-0.293002	0	0	-0.257116	0.182627	0.121162	0.10571	-0.379345	1.01286	0.365991	0.639644	0	0	0.0699103	-0.132485	0.143069	0.349322	1.5708	0	0
0.06	2.17487	1.39138	-0.679948	0.706084	-0.87685	0.944635	0.0917245	0.180843	-0.338592	0.183247	-0.0233348	0	0	-0.0837867	-0.290221	-0.293723	0.919973	-0.352763	0	0	-0.259881	0.184481	0.126069	0.106671	-0.379798	1.01505	0.366133	0.632655	0	0	0.0691212	-0.131599	0.140595	0.352045	1.5708	0	0
0.07	2.17366	1.38786	-0.680824	0.708209	-0.868697	0.945668	0.0745885	0.187817	-0.327938	0.174093	-0.0203329	0	0	-0.051203	-0.300146	-0.272363	0.969101	-0.402106	0	0	-0.263536	0.18627	0.130681	0.106692	-0.377225	1.00119	0.361561	0.647507	0	0	0.0680238	-0.13127	0.141454	0.357886	1.5708	0	0
0.08	2.16656	1.38417	-0.676801	0.710046	-0.86035	0.946466	0.057019	0.195214	-0.317677	0.163123	-0.0205492	0	0	-0.029954	-0.304794	-0.255693	0.999373	-0.423557	0	0	-0.265741	0.189649	0.136258	0.106414	-0.376839	0.995325	0.358234	0.65524	0	0	0.0670113	-0.128762	0.139573	0.360224	1.5708	0	0
0.09	2.28304	1.3795	-0.799955	0.713101	-0.852929	0.950615	0.0177079	0.188897	-0.300917	0.148039	-0.0225228	0	0	-0.0135883	-0.300405	-0.243398	1.04383	-0.442849	0	0	-0.291804	0.172543	0.144897	0.111961	-0.368936	0.992697	0.349659	0.662057	0	0	0.0731019	-0.130958	0.139586	0.361387	1.5708	0	0
0.1	2.27549	1.3772	-0.796429	0.714905	-0.844714	0.951367	0.00072011	0.195078	-0.291939	0.136964	-0.0200025	0	0	0.00273449	-0.307503	-0.24017	1.06921	-0.408208	0	0	-0.29267	0.174571	0.151462	0.110887	-0.368071	0.988085	0.345778	0.668495	0	0	0.0728014	-0.128208	0.140738	0.363632	1.5708	0	0
0.11	2.20848	1.37826	-0.728166	0.715789	-0.837033	0.950367	-0.00216788	0.206266	-0.287738	0.128102	-0.0150178	0	0	0.0506258	-0.313067	-0.207881	1.11367	-0.359814	0	0	-0.281051	0.185169	0.152919	0.108808	-0.370467	0.978211	0.345621	0.675053	0	0	0.0721355	-0.123866	0.142276	0.364249	1.5708	0	0
0.12	2.35031	1.3751	-0.875836	0.718713	-0.830422	0.955014	-0.0444867	0.193328	-0.270018	0.109593	-0.0182849	0	0	0.0678727	-0.297879	-0.192266	1.14946	-0.341206	0	0	-0.310082	0.161117	0.15993	0.115614	-0.361041	0.965696	0.337585	0.683977	0	0	0.0819218	-0.127485	0.145717	0.364108	1.5708	0	0
0.13	2.2866	1.37951	-0.810687	0.719376	-0.823058	0.953937	-0.0449588	0.201806	-0.267591	0.101667	-0.0138634	0	0	0.114102	-0.304081	-0.171438	1.18279	-0.292771	0	0	-0.297723	0.170104	0.161589	0.113787	-0.364197	0.956425	0.338695	0.692601	0	0	0.0820274	-0.124021	0.15068	0.365228	1.5708	0	0
0.14	2.31284	1.381	-0.840075	0.721032	-0.816036	0.955325	-0.0639211	0.200017	-0.25627	0.0874308	-0.0139614	0	0	0.140509	-0.297369	-0.157733	1.20306	-0.263274	0	0	-0.302463	0.164198	0.166268	0.117361	-0.366791	0.975521	0.343007	0.657341	0	0	0.0881239	-0.121712	0.145735	0.359346	1.5708	0	0
0.15	2.42004	1.38523	-0.948232	0.723929	-0.811529	0.958949	-0.0686196	0.178371	-0.28144	0.110409	-0.00189168	0	0	0.149022	-0.238269	-0.0978258	1.19205	-0.241119	0	0	-0.322144	0.13927	0.16859	0.128639	-0.355237	0.965887	0.332302	0.666043	0	0	0.10456	-0.127186	0.151462	0.355122	1.5708	0	0
0.16	2.29195	1.38505	-0.829339	0.724636	-0.801309	0.956302	-0.0939088	0.206307	-0.228564	0.0544416	-0.0200635	0	0	0.182714	-0.301307	-0.153535	1.21181	-0.2081	0	0	-0.297965	0.162161	0.181478	0.116617	-0.367458	0.963559	0.341112	0.670241	0	0	0.0955728	-0.119204	0.1547	0.353933	1.5708	0	0
0.17	2.23931	1.38797	-0.782437	0.726665	-0.793552	0.955787	-0.100047	0.213728	-0.220851	0.0437209	-0.0208458	0	0	0.185205	-0.304319	-0.158468	1.18098	-0.16341	0	0	-0.287342	0.166551	0.189429	0.114452	-0.369162	0.961636	0.342412	0.672213	0	0	0.0970601	-0.117851	0.156519	0.350194	1.5708	0	0
0.18	2.33741	1.3923	-0.884999	0.727966	-0.787012	0.958575	-0.123036	0.197009	-0.213228	0.0345659	-0.0215724	0	0	0.222607	-0.285148	-0.143151	1.20948	-0.174532	0	0	-0.30044	0.14801	0.19342	0.120602	-0.366719	0.956518	0.339798	0.669693	0	0	0.107285	-0.118176	0.159267	0.341717	1.5708	0	0
0.19	2.39548	1.39554	-0.948699	0.729578	-0.780262	0.960435	-0.14122	0.186893	-0.204158	0.0245981	-0.0222335	0	0	0.246836	-0.2743	-0.139963	1.21412	-0.169207	0	0	-0.307045	0.135645	0.1988	0.125136	-0.365651	0.954791	0.338438	0.666699	0	0	0.11435	-0.119265	0.165991	0.338664	1.5708	0	0
0.2	2.39637	1.36892	-0.970654	0.735518	-0.773991	0.963339	-0.171226	0.205873	-0.179052	0.0334383	-0.0228662	0	0	0.225993	-0.302618	-0.15626	1.19419	-0.139761	0	0	-0.335698	0.140238	0.226235	0.131706	-0.364899	0.959218	0.340521	0.667561	0	0	0.122895	-0.124885	0.176496	0.343374	1.5708	0	0
0.21	2.64668	1.40321	-1.21085	0.733859	-0.768151	0.964894	-0.166175	0.141689	-0.198362	0.0370638	-0.00384123	0	0	0.24392	-0.234348	-0.170532	1.15776	-0.132689	0	0	-0.329837	0.0840955	0.204206	0.140003	-0.357079	0.965879	0.333873	0.66002	0	0	0.134949	-0.12798	0.174498	0.335919	1.5708	0	0
0.22	2.1038	1.41757	-0.673624	0.735459	-0.756883	0.954082	-0.119014	0.210314	-0.183791	0.0255127	-0.0034376	0	0	0.345102	-0.276001	-0.100226	1.18554	-0.0616637	0	0	-0.24559	0.155253	0.219083	0.113551	-0.373976	0.950325	0.349149	0.684691	0	0	0.110661	-0.121918	0.187597	0.338008	1.5708	0	0
0.23	2.65814	1.40136	-1.2489	0.738471	-0.750754	0.965675	-0.208854	0.140312	-0.160414	0.00362637	-0.009862	0	0	0.281194	-0.225905	-0.159487	1.15346	-0.0936904	0	0	-0.324784	0.077565	0.230265	0.134107	-0.360637	0.958116	0.337765	0.665351	0	0	0.135851	-0.125333	0.173706	0.322178	1.5708	0	0
0.24	2.55938	1.41473	-1.13585	0.736844	-0.749306	0.963775	-0.183108	0.152618	-0.169649	0.0155557	-0.00510742	0	0	0.321923	-0.225124	-0.139886	1.12383	-0.0689492	0	0	-0.317243	0.0879666	0.220738	0.149492	-0.366854	0.960105	0.344087	0.662944	0	0	0.154571	-0.123359	0.18705	0.321121	1.5708	0	0
0.25	2.80476	1.39863	-1.3846	0.737589	-0.742443	0.968825	-0.229387	0.1159	-0.167972	0.00114058	-0.00454388	0	0	0.281519	-0.169315	-0.136203	1.06149	-0.062644	0	0	-0.352527	0.0518913	0.219555	0.158324	-0.364226	0.968103	0.342596	0.650187	0	0	0.168762	-0.124467	0.189118	0.312226	1.5708	0	0
0.26	2.3903	1.43534	-0.965389	0.737945	-0.732822	0.959607	-0.181526	0.166231	-0.162868	0	0.00253906	0	0	0.362552	-0.232943	-0.145722	1.0735	0.0764034	0	0	-0.278625	0.10562	0.222578	0.141776	-0.373403	0.964215	0.349762	0.659494	0	0	0.151947	-0.118948	0.189829	0.310921	1.5708	0	0
0.27	2.59512	1.42463	-1.17347	0.737678	-0.725815	0.963052	-0.220703	0.142047	-0.164042	0	0.00872686	0	0	0.348752	-0.225777	-0.186959	1.05108	0.0709903	0	0	-0.307081	0.0834377	0.222432	0.149873	-0.374659	0.967271	0.351655	0.658144	0	0	0.160995	-0.11805	0.19204	0.308177	1.5708	0	0
0.28	2.53549	1.44389	-1.11289	0.74191	-0.718538	0.961096	-0.201593	0.148246	-0.157908	0	0.0133039	0	0	0.389046	-0.235798	-0.186829	1.03153	0.0811588	0	0	-0.282971	0.0800888	0.217854	0.1532	-0.361095	0.981043	0.34016	0.651102	0	0	0.159461	-0.12476	0.176329	0.306085	1.5708	0	0
0.29	2.67672	1.43856	-1.25988	0.742827	-0.711503	0.963009	-0.224048	0.130141	-0.155202	0	0.0174192	0	0	0.378679	-0.218632	-0.199894	0.993424	0.0869114	0	0	-0.299195	0.0623905	0.220199	0.159836	-0.35981	0.986624	0.339568	0.649404	0	0	0.166527	-0.124821	0.175256	0.303147	1.5708	0	0
0.3	2.65869	1.4289	-1.24798	0.742216	-0.70474	0.962735	-0.24227	0.131724	-0.147121	0	0.0225109	0	0	0.368179	-0.212351	-0.196296	0.948122	0.105757	0	0	-0.310365	0.0662121	0.23034	0.161223	-0.370873	0.986416	0.351053	0.649001	0	0	0.174531	-0.118939	0.184656	0.296579	1.5708	0	0
